# xmcd
#
# Track frame offsets:
#	190
#	14165
#	28005
#	41392
#	55900
#	69490
#	82052
#	94337
#	109102
#	122610
#	137520
#	151602
#	164130
#	178122
#	191962
#	203562
#
# Disc length: 2880 seconds
#
# Revision: 4
# Processed by: cddbd v1.5.1PL2 Copyright (c) Steve Scherf et al.
# Submitted via: dBpowerAMP V4.0
#
DISCID=df0b3e10
DTITLE=Jimmie Rodgers - The Early Years 1928-1929 - Rounder CD
DYEAR=1990
DGENRE=Country
TTITLE0=My Little Lady
TTITLE1=Blue Yodel No. 4
TTITLE2=Daddy And Home
TTITLE3=Lullaby Yodel
TTITLE4=You And My Old Guitar
TTITLE5=Desert Blues
TTITLE6=Never No Mo' Blues
TTITLE7=Mississippi Moon
TTITLE8=My Carolina Sunshine Girl
TTITLE9=I'm Lonely And Blue
TTITLE10=I'm Lonely And Blue (With Band)
TTITLE11=Waiting For A Train
TTITLE12=My Old Pal
TTITLE13=My Little Old Home Down In New Orleans
TTITLE14=Blue Yodel No. 5
TTITLE15=Any Old Time
EXTD=
EXTT0=
EXTT1=
EXTT2=
EXTT3=
EXTT4=
EXTT5=
EXTT6=
EXTT7=
EXTT8=
EXTT9=
EXTT10=
EXTT11=
EXTT12=
EXTT13=
EXTT14=
EXTT15=
PLAYORDER=
